<?xml version="1.0" encoding="UTF-8" standalone="no"?>
<!DOCTYPE svg PUBLIC "-//W3C//DTD SVG 1.1//EN" "http://www.w3.org/Graphics/SVG/1.1/DTD/svg11.dtd">
<svg version="1.1" xmlns="http://www.w3.org/2000/svg" xmlns:xlink="http://www.w3.org/1999/xlink" preserveAspectRatio="xMidYMid meet" viewBox="0 0 640 640" width="640" height="640"><defs><path d="M360.33 168.78C370.91 161.6 385.31 164.35 392.5 174.93C415.91 209.41 473.14 293.7 496.55 328.19C503.74 338.77 500.98 353.17 490.4 360.35C409.84 415.05 187.3 566.15 106.73 620.86C96.15 628.04 81.75 625.29 74.57 614.71C51.16 580.22 -6.08 495.93 -29.49 461.45C-36.67 450.87 -33.92 436.47 -23.34 429.29C57.23 374.58 279.77 223.48 360.33 168.78Z" id="cl9xipsOw"></path><path d="M652.55 -206.29C667.74 -214.51 686.72 -208.86 694.93 -193.67C761.09 -71.37 944.67 268 1010.83 390.3C1019.04 405.49 1013.39 424.46 998.2 432.68C919.71 475.14 711.75 587.63 633.26 630.09C618.07 638.31 599.1 632.65 590.88 617.46C524.73 495.17 341.14 155.8 274.99 33.5C266.77 18.31 272.42 -0.66 287.61 -8.88C366.1 -51.34 574.06 -163.83 652.55 -206.29Z" id="cYHVpn4Fg"></path><radialGradient id="gradienta9jhubRjr" gradientUnits="userSpaceOnUse" cx="470.08" cy="-107.59" dx="815.73" dy="531.38" r="726.47"><stop style="stop-color: #de15ff;stop-opacity: 1" offset="0%"></stop><stop style="stop-color: #010000;stop-opacity: 1" offset="100%"></stop></radialGradient></defs><g><g><g><use xlink:href="#cl9xipsOw" opacity="1" fill="#ffffff" fill-opacity="1"></use></g><g><use xlink:href="#cYHVpn4Fg" opacity="1" fill="url(#gradienta9jhubRjr)"></use></g></g></g></svg>