<?xml version="1.0" encoding="UTF-8" standalone="no"?>
<!DOCTYPE svg PUBLIC "-//W3C//DTD SVG 1.1//EN" "http://www.w3.org/Graphics/SVG/1.1/DTD/svg11.dtd">
<svg version="1.1" xmlns="http://www.w3.org/2000/svg" xmlns:xlink="http://www.w3.org/1999/xlink" preserveAspectRatio="xMidYMid meet" viewBox="0 0 640 640" width="640" height="640"><defs><path d="M360.33 168.78C370.91 161.6 385.31 164.35 392.5 174.93C415.91 209.41 473.14 293.7 496.55 328.19C503.74 338.77 500.98 353.17 490.4 360.35C409.84 415.05 187.3 566.15 106.73 620.86C96.15 628.04 81.75 625.29 74.57 614.71C51.16 580.22 -6.08 495.93 -29.49 461.45C-36.67 450.87 -33.92 436.47 -23.34 429.29C57.23 374.58 279.77 223.48 360.33 168.78Z" id="cl9xipsOw"></path><path d="M0 0L623.84 0L623.84 642.47L0 642.47L0 0Z" id="a1OZWmKw3h"></path><path d="M660.6 331.5C670.05 349.95 662.76 372.57 644.32 382.02C541.65 434.65 267.02 575.44 164.35 628.07C145.9 637.53 123.28 630.24 113.83 611.8C87.22 559.89 24.51 437.56 -2.1 385.65C-11.56 367.21 -4.27 344.59 14.17 335.13C116.85 282.5 391.47 141.72 494.15 89.08C512.59 79.63 535.21 86.91 544.66 105.36C571.27 157.27 633.99 279.6 660.6 331.5Z" id="k5Tb5xrgM"></path><path d="M777.94 -103.43C794.87 -108.26 812.51 -98.45 817.34 -81.52C851.86 39.46 946.68 371.74 981.2 492.72C986.03 509.65 976.22 527.3 959.3 532.13C883.69 553.7 687.51 609.68 611.9 631.25C594.97 636.08 577.33 626.28 572.5 609.35C537.98 488.37 443.16 156.08 408.64 35.1C403.81 18.17 413.62 0.53 430.55 -4.3C506.16 -25.88 702.33 -81.86 777.94 -103.43Z" id="dsND12HvN"></path><linearGradient id="gradientbo64cy7sh" gradientUnits="userSpaceOnUse" x1="604.25" y1="-53.87" x2="785.6" y2="581.69"><stop style="stop-color: #ff03f6;stop-opacity: 1" offset="0%"></stop><stop style="stop-color: #010000;stop-opacity: 1" offset="100%"></stop></linearGradient></defs><g><g><g><use xlink:href="#cl9xipsOw" opacity="1" fill="#ffffff" fill-opacity="1"></use></g><g><use xlink:href="#a1OZWmKw3h" opacity="1" fill="#f6f6f6" fill-opacity="1"></use></g><g><use xlink:href="#k5Tb5xrgM" opacity="1" fill="#ffffff" fill-opacity="1"></use></g><g><use xlink:href="#dsND12HvN" opacity="1" fill="url(#gradientbo64cy7sh)"></use></g></g></g></svg>