<?xml version="1.0" encoding="UTF-8" standalone="no"?>
<!DOCTYPE svg PUBLIC "-//W3C//DTD SVG 1.1//EN" "http://www.w3.org/Graphics/SVG/1.1/DTD/svg11.dtd">
<svg version="1.1" xmlns="http://www.w3.org/2000/svg" xmlns:xlink="http://www.w3.org/1999/xlink" preserveAspectRatio="xMidYMid meet" viewBox="0 0 640 640" width="640" height="640"><defs><path d="M489.14 -83.65C503.61 -91.95 522.06 -86.96 530.36 -72.5C596.28 42.27 778.98 360.4 844.89 475.17C853.2 489.63 848.21 508.08 833.75 516.39C789.49 541.8 682.91 603.02 638.65 628.43C624.19 636.74 605.74 631.75 597.43 617.29C531.52 502.52 348.82 184.39 282.9 69.62C274.6 55.16 279.59 36.7 294.05 28.4C338.31 2.98 444.89 -58.23 489.14 -83.65Z" id="e1Sn3uo4n6"></path><linearGradient id="gradientb25Ca6WHwV" gradientUnits="userSpaceOnUse" x1="391.6" y1="-27.62" x2="736.2" y2="572.41"><stop style="stop-color: #d226d8;stop-opacity: 1" offset="0%"></stop><stop style="stop-color: #010000;stop-opacity: 1" offset="100%"></stop></linearGradient><path d="M437.32 143.32C452.09 132.84 472.55 136.32 483.03 151.08C511.63 191.38 578.44 285.55 607.04 325.85C617.51 340.62 614.04 361.08 599.27 371.56C522.66 425.92 319.56 570.03 242.95 624.38C228.18 634.86 207.71 631.39 197.24 616.62C168.64 576.32 101.83 482.15 73.23 441.85C62.75 427.08 66.23 406.62 81 396.14C157.61 341.78 360.71 197.68 437.32 143.32Z" id="g1UlnXirQG"></path></defs><g><g><g><use xlink:href="#e1Sn3uo4n6" opacity="1" fill="url(#gradientb25Ca6WHwV)"></use></g><g><use xlink:href="#g1UlnXirQG" opacity="1" fill="#813bbd" fill-opacity="1"></use></g></g></g></svg>