<?xml version="1.0" encoding="UTF-8" standalone="no"?>
<!DOCTYPE svg PUBLIC "-//W3C//DTD SVG 1.1//EN" "http://www.w3.org/Graphics/SVG/1.1/DTD/svg11.dtd">
<svg version="1.1" xmlns="http://www.w3.org/2000/svg" xmlns:xlink="http://www.w3.org/1999/xlink" preserveAspectRatio="xMidYMid meet" viewBox="0 0 640 640" width="640" height="640"><defs><path d="M360.33 168.78C370.91 161.6 385.31 164.35 392.5 174.93C415.91 209.41 473.14 293.7 496.55 328.19C503.74 338.77 500.98 353.17 490.4 360.35C409.84 415.05 187.3 566.15 106.73 620.86C96.15 628.04 81.75 625.29 74.57 614.71C51.16 580.22 -6.08 495.93 -29.49 461.45C-36.67 450.87 -33.92 436.47 -23.34 429.29C57.23 374.58 279.77 223.48 360.33 168.78Z" id="cl9xipsOw"></path><path d="M-33.49 0L603.2 0L603.2 642.47L-33.49 642.47L-33.49 0Z" id="cCpHpihP8"></path><path d="M534.23 267.25C542.25 277.84 540.16 292.92 529.58 300.94C442.67 366.75 201.12 549.68 114.21 615.5C103.62 623.51 88.54 621.43 80.52 610.84C57.96 581.05 4.79 510.84 -17.78 481.04C-25.8 470.45 -23.71 455.37 -13.13 447.36C73.78 381.54 315.34 198.61 402.24 132.79C412.83 124.78 427.91 126.86 435.93 137.45C458.49 167.24 511.67 237.46 534.23 267.25Z" id="b3PwP6MfEG"></path><path d="M573.83 -157.29C590.31 -166.34 611.01 -160.31 620.06 -143.82C684.72 -26.01 862.3 297.55 926.96 415.36C936 431.84 929.97 452.54 913.49 461.59C847.33 497.9 678.72 590.44 612.56 626.75C596.07 635.8 575.37 629.77 566.33 613.28C501.67 495.48 324.09 171.91 259.43 54.1C250.38 37.62 256.41 16.92 272.9 7.87C339.06 -28.44 507.67 -120.98 573.83 -157.29Z" id="d2s6Ju9XIt"></path><linearGradient id="gradienta7OvmEkNfo" gradientUnits="userSpaceOnUse" x1="423.36" y1="-74.71" x2="763.02" y2="544.17"><stop style="stop-color: #ff03f6;stop-opacity: 1" offset="0%"></stop><stop style="stop-color: #010000;stop-opacity: 1" offset="100%"></stop></linearGradient></defs><g><g><g><use xlink:href="#cl9xipsOw" opacity="1" fill="#ffffff" fill-opacity="1"></use></g><g><use xlink:href="#cCpHpihP8" opacity="1" fill="#f6f6f6" fill-opacity="1"></use></g><g><use xlink:href="#b3PwP6MfEG" opacity="1" fill="#ffffff" fill-opacity="1"></use></g><g><use xlink:href="#d2s6Ju9XIt" opacity="1" fill="url(#gradienta7OvmEkNfo)"></use></g></g></g></svg>